<?xml version="1.0" encoding="UTF-8"?>
<svg width="783.22" height="205.28" version="1.1" viewBox="0 0 783.22 205.28" xml:space="preserve" xmlns="http://www.w3.org/2000/svg" xmlns:cc="http://creativecommons.org/ns#" xmlns:dc="http://purl.org/dc/elements/1.1/" xmlns:rdf="http://www.w3.org/1999/02/22-rdf-syntax-ns#">
    <style>
        path { 
            mix-blend-mode: difference; 
        }
    </style>
    <metadata><rdf:RDF><cc:Work rdf:about=""><dc:format>image/svg+xml</dc:format><dc:type rdf:resource="http://purl.org/dc/dcmitype/StillImage"/><dc:title/></cc:Work></rdf:RDF></metadata><defs><clipPath id="clipPath961"><path d="M 0,227.919 H 595.28 V 0 H 0 Z"/></clipPath></defs><g transform="matrix(1.3333 0 0 -1.3333 -3.6299 284.69)"><g clip-path="url(#clipPath961)" fill="#fff"><g transform="translate(103.15 60.962)"><path d="m0 0v10.86c-0.417-0.169-0.683-0.212-0.866-0.359-11.533-9.34-24.753-12.746-39.396-11.333-14.462 1.395-27.405 6.38-38.192 16.273-11.199 10.271-17.763 23.16-20.481 38.006-1.955 10.682-2.198 21.438 0.503 32.025 5.516 21.612 18.597 37.153 39.058 45.838 21.873 9.284 43.675 8.507 64.666-3.095 8.332-4.605 15.061-11.081 19.813-19.452 0.189-0.332 0.339-0.687 0.589-1.2-9.258-7.077-18.503-14.143-27.384-20.931-2.705 3.134-4.993 6.606-8.044 9.164-9.711 8.149-20.745 10.934-32.86 6.15-9.126-3.604-14.578-10.882-17.415-19.999-3.827-12.295-3.244-24.385 3.494-35.634 5.189-8.658 13.082-13.324 23.186-14.09 12.311-0.932 22.375 3.775 30.838 12.424 0.185 0.191 0.325 0.425 0.723 0.958h-23.463v26.766h55.977v-72.371z" fill="#fff" fill-rule="evenodd"/></g><g transform="translate(520.68 91.78)"><path d="m0 0c20.529-2e-3 37.121 16.524 37.197 37.044 0.074 20.492-16.663 37.221-37.224 37.211-20.47-0.011-37.198-16.656-37.252-37.07-0.058-20.453 16.716-37.185 37.279-37.185m69.454 36.678c0.103-36.648-30.468-68.992-70.066-68.897-40.264 0.095-69.532 34.422-68.874 70.914 0.639 35.473 29.812 67.708 70.01 67.737 40.52 0.029 69.018-33.786 68.93-69.754" fill="#fff" fill-rule="evenodd"/></g><g transform="translate(209.49 91.78)"><path d="m0 0c20.605-4e-3 37.337 16.631 37.335 37.113-2e-3 20.475-16.833 37.217-37.335 37.142-20.527-0.078-37.167-16.717-37.138-37.142 0.029-20.499 16.65-37.111 37.138-37.113m69.136 36.655c0.074-36.751-30.645-69.152-70.433-68.874-39.682 0.279-69.355 34.088-68.502 71.273 0.822 35.906 30.439 67.385 70.024 67.38 40.554-7e-3 68.986-33.816 68.911-69.779" fill="#fff" fill-rule="evenodd"/></g><g transform="translate(266.48 197.32)"><path d="m0 0h2.045c11.882 0 23.763-0.034 35.644 0.042 1.533 0.01 2.084-0.509 2.495-1.889 8.455-28.373 16.953-56.735 25.447-85.098 0.186-0.621 0.406-1.233 0.971-1.872 0.934 3.149 1.875 6.297 2.805 9.446 7.68 25.99 15.361 51.981 23.025 77.977 0.256 0.873 0.478 1.426 1.615 1.422 12.439-0.048 24.877-0.03 37.318-0.035 0.219 0 0.44-0.038 0.871-0.079-1.178-3.239-2.319-6.406-3.482-9.567-15.336-41.627-30.685-83.249-45.974-124.89-0.55-1.498-1.202-2.01-2.81-1.996-9.148 0.085-18.296 0.075-27.445 4e-3 -1.345-7e-3 -1.902 0.409-2.364 1.652-16.502 44.398-33.046 88.781-49.583 133.17-0.188 0.507-0.345 1.022-0.578 1.717" fill="#fff" fill-rule="evenodd"/></g><path d="m407.58 197.22h37.224v-136.27h-37.224z" fill-rule="evenodd"/><g transform="translate(29.739 213.26)"><path d="m0 0c-0.781-4.35-1.812-8.627-2.259-12.967-0.517-5.035 0.326-7.209 2.902-9.789-4.696-4.039-9.404-8.089-14.118-12.142-4.249 4.77-5.26 13.336-1.9 19.024 3.874 6.553 9.57 11.368 15.375 15.874" fill="#fff" fill-rule="evenodd"/></g><g transform="translate(113.96 191.4)"><path d="m0 0c2.762 3.346 2.428 7.561 1.823 11.702-0.498 3.393-1.446 6.721-2.27 10.42 2.204-1.833 4.423-3.378 6.267-5.287 3.046-3.154 6.048-6.392 8.707-9.87 3.121-4.086 3.659-8.763 1.793-13.61-0.793-2.055-1.708-4.063-2.454-5.82-4.657 4.186-9.197 8.268-13.866 12.465" fill="#fff" fill-rule="evenodd"/></g></g></g></svg>
