<?xml version="1.0" encoding="UTF-8" standalone="no"?>
<svg
   xmlns:dc="http://purl.org/dc/elements/1.1/"
   xmlns:cc="http://creativecommons.org/ns#"
   xmlns:rdf="http://www.w3.org/1999/02/22-rdf-syntax-ns#"
   xmlns:svg="http://www.w3.org/2000/svg"
   xmlns="http://www.w3.org/2000/svg"
   xmlns:sodipodi="http://sodipodi.sourceforge.net/DTD/sodipodi-0.dtd"
   xmlns:inkscape="http://www.inkscape.org/namespaces/inkscape"
   width="41.405506"
   height="52.938263"
   version="1.1"
   viewBox="0 0 41.405506 52.938263"
   xml:space="preserve"
   id="svg146"
   sodipodi:docname="govio-logo.svg"
   inkscape:version="1.0.2 (e86c8708, 2021-01-15)"><sodipodi:namedview
   pagecolor="#ffffff"
   bordercolor="#666666"
   borderopacity="1"
   objecttolerance="10"
   gridtolerance="10"
   guidetolerance="10"
   inkscape:pageopacity="0"
   inkscape:pageshadow="2"
   inkscape:window-width="1920"
   inkscape:window-height="1080"
   id="namedview148"
   showgrid="false"
   inkscape:zoom="8.8117802"
   inkscape:cx="20.33865"
   inkscape:cy="21.457348"
   inkscape:window-x="1792"
   inkscape:window-y="0"
   inkscape:window-maximized="0"
   inkscape:current-layer="g142" />
    <metadata
   id="metadata109"><rdf:RDF><cc:Work
       rdf:about=""><dc:format>image/svg+xml</dc:format><dc:type
         rdf:resource="http://purl.org/dc/dcmitype/StillImage" /><dc:title></dc:title></cc:Work></rdf:RDF></metadata><defs
   id="defs114"><clipPath
     id="clipPath961"><path
       d="M 0,227.919 H 595.28 V 0 H 0 Z"
       id="path111" /></clipPath></defs><g
   transform="matrix(1.3333,0,0,-1.3333,-70.371916,211.16636)"
   id="g144"><g
     clip-path="url(#clipPath961)"
     fill="#fff"
     id="g142"
     style="fill:#666666"><g
       transform="matrix(0.21959008,0,0,0.21959008,75.95862,120.04711)"
       id="g118"
       style="fill:#ffffff;stroke:#000000;stroke-width:10.2466;stroke-miterlimit:4;stroke-dasharray:none;stroke-opacity:1"><path
         d="m 0,0 v 10.86 c -0.417,-0.169 -0.683,-0.212 -0.866,-0.359 -11.533,-9.34 -24.753,-12.746 -39.396,-11.333 -14.462,1.395 -27.405,6.38 -38.192,16.273 -11.199,10.271 -17.763,23.16 -20.481,38.006 -1.955,10.682 -2.198,21.438 0.503,32.025 5.516,21.612 18.597,37.153 39.058,45.838 21.873,9.284 43.675,8.507 64.666,-3.095 8.332,-4.605 15.061,-11.081 19.813,-19.452 0.189,-0.332 0.339,-0.687 0.589,-1.2 C 16.436,100.486 7.191,93.42 -1.69,86.632 c -2.705,3.134 -4.993,6.606 -8.044,9.164 -9.711,8.149 -20.745,10.934 -32.86,6.15 -9.126,-3.604 -14.578,-10.882 -17.415,-19.999 -3.827,-12.295 -3.244,-24.385 3.494,-35.634 5.189,-8.658 13.082,-13.324 23.186,-14.09 12.311,-0.932 22.375,3.775 30.838,12.424 0.185,0.191 0.325,0.425 0.723,0.958 H -25.231 V 72.371 H 30.746 V 0 Z"
         fill="#fff"
         fill-rule="evenodd"
         id="path116"
         style="fill:#ffffff;stroke:#000000;stroke-width:10.2466;stroke-miterlimit:4;stroke-dasharray:none;stroke-opacity:1" /></g><g
       transform="matrix(0.31191459,0,0,0.33068504,76.71591,149.95619)"
       id="g140"
       style="fill:#ffffff;stroke:#000000;stroke-width:7.00597;stroke-linecap:round;stroke-linejoin:bevel;stroke-miterlimit:4;stroke-dasharray:none;stroke-opacity:1;paint-order:fill markers stroke"><path
         d="m 0,0 c 2.762,3.346 2.428,7.561 1.823,11.702 -0.498,3.393 -1.446,6.721 -2.27,10.42 2.204,-1.833 4.423,-3.378 6.267,-5.287 3.046,-3.154 6.048,-6.392 8.707,-9.87 3.121,-4.086 3.659,-8.763 1.793,-13.61 -0.793,-2.055 -1.708,-4.063 -2.454,-5.82 C 9.209,-8.279 4.669,-4.197 0,0"
         fill="#fff"
         fill-rule="evenodd"
         id="path138"
         style="fill:#ffffff;stroke:#000000;stroke-width:7.00597;stroke-linecap:round;stroke-linejoin:bevel;stroke-miterlimit:4;stroke-dasharray:none;stroke-opacity:1;paint-order:fill markers stroke" /></g><g
       transform="matrix(-0.3138667,0,0,0.33068504,61.599055,150.17269)"
       id="g140-0"
       style="fill:#ffffff;stroke:#000000;stroke-width:7.00597;stroke-linecap:round;stroke-linejoin:bevel;stroke-miterlimit:4;stroke-dasharray:none;stroke-opacity:1;paint-order:fill markers stroke"><path
         d="m 0,0 c 2.762,3.346 2.428,7.561 1.823,11.702 -0.498,3.393 -1.446,6.721 -2.27,10.42 2.204,-1.833 4.423,-3.378 6.267,-5.287 3.046,-3.154 6.048,-6.392 8.707,-9.87 3.121,-4.086 3.659,-8.763 1.793,-13.61 -0.793,-2.055 -1.708,-4.063 -2.454,-5.82 C 9.209,-8.279 4.669,-4.197 0,0"
         fill="#fff"
         fill-rule="evenodd"
         id="path138-0"
         style="fill:#ffffff;stroke:#000000;stroke-width:7.00597;stroke-linecap:round;stroke-linejoin:bevel;stroke-miterlimit:4;stroke-dasharray:none;stroke-opacity:1;paint-order:fill markers stroke" /></g></g></g></svg>
